<?xml version="1.0" standalone="no"?>
<!DOCTYPE svg PUBLIC "-//W3C//DTD SVG 20010904//EN"
 "http://www.w3.org/TR/2001/REC-SVG-20010904/DTD/svg10.dtd">
<svg version="1.0" xmlns="http://www.w3.org/2000/svg"
 width="2000.000000pt" height="2000.000000pt" viewBox="0 0 2000.000000 2000.000000"
 preserveAspectRatio="xMidYMid meet">

<g transform="translate(0.000000,2000.000000) scale(0.100000,-0.100000)"
fill="#000000" stroke="none">
<path d="M12761 12757 c-407 -801 -472 -929 -593 -1165 -88 -172 -125 -254
-116 -256 7 -3 150 -44 318 -91 168 -48 433 -124 590 -170 157 -45 294 -85
305 -88 11 -3 92 -26 179 -51 88 -25 162 -44 164 -41 2 2 -125 408 -283 902
-158 494 -312 977 -342 1073 -30 96 -58 178 -62 182 -3 4 -75 -129 -160 -295z"/>
<path d="M6410 8170 c-236 -42 -390 -234 -390 -484 0 -313 243 -525 556 -486
169 22 296 113 364 261 32 71 35 69 -109 69 l-128 0 -24 -35 c-55 -82 -188
-109 -285 -60 -59 31 -92 71 -116 139 -50 145 8 313 127 367 49 23 139 24 188
4 35 -14 107 -80 107 -97 0 -4 59 -8 130 -8 102 0 130 3 130 13 0 8 -14 43
-32 78 -91 182 -299 278 -518 239z"/>
<path d="M8382 8169 c-155 -30 -300 -156 -354 -307 -26 -70 -35 -207 -19 -283
79 -378 560 -518 836 -244 120 119 168 291 131 466 -38 179 -178 321 -357 364
-69 16 -168 18 -237 4z m227 -228 c49 -25 105 -88 122 -137 22 -64 18 -190 -9
-249 -30 -65 -56 -93 -117 -121 -56 -26 -133 -31 -200 -13 -62 17 -129 90
-150 163 -36 125 0 271 83 334 70 53 191 63 271 23z"/>
<path d="M13410 8169 c-229 -38 -384 -234 -384 -484 0 -142 39 -248 121 -336
83 -88 171 -133 298 -149 212 -27 416 74 504 250 29 60 31 69 31 182 l0 118
-255 0 -255 0 0 -90 0 -90 145 0 c165 0 166 -1 112 -72 -49 -64 -106 -92 -192
-93 -93 0 -153 24 -203 80 -83 94 -93 257 -22 368 76 120 264 143 362 45 l38
-38 125 0 c98 0 125 3 125 13 0 30 -64 139 -106 180 -102 101 -269 145 -444
116z"/>
<path d="M7247 8163 c-4 -3 -7 -222 -7 -485 l0 -478 275 0 275 0 0 90 0 90
-155 0 -155 0 0 395 0 395 -113 0 c-63 0 -117 -3 -120 -7z"/>
<path d="M9207 8163 c-4 -3 -7 -46 -7 -95 l0 -88 130 0 130 0 0 -390 0 -390
115 0 115 0 2 388 3 387 128 3 127 3 0 94 0 95 -368 0 c-203 0 -372 -3 -375
-7z"/>
<path d="M10210 7685 l0 -485 115 0 115 0 0 200 0 200 183 -2 182 -3 3 -197 2
-198 115 0 115 0 0 485 0 485 -115 0 -115 0 0 -190 0 -190 -185 0 -185 0 0
190 0 190 -115 0 -115 0 0 -485z"/>
<path d="M11350 7685 l0 -485 115 0 115 0 0 485 0 485 -115 0 -115 0 0 -485z"/>
<path d="M11890 7685 l0 -485 120 0 120 0 2 292 3 292 192 -292 193 -292 120
0 120 0 -2 483 -3 482 -117 3 -118 3 -2 -297 -3 -297 -195 296 -194 297 -118
0 -118 0 0 -485z"/>
<path d="M7350 6663 c0 -3 27 -58 60 -120 57 -108 60 -119 60 -184 0 -62 2
-69 20 -69 18 0 20 7 20 67 0 62 4 74 65 190 63 121 64 123 40 123 -22 0 -32
-13 -72 -95 -26 -52 -50 -95 -53 -95 -3 0 -27 43 -53 95 -36 73 -52 95 -67 95
-11 0 -20 -3 -20 -7z"/>
<path d="M8015 6656 c-37 -17 -80 -62 -94 -99 -30 -78 -2 -194 56 -235 82 -56
177 -53 248 9 97 86 78 261 -35 319 -46 23 -129 26 -175 6z m142 -36 c63 -28
85 -69 81 -152 -3 -55 -8 -72 -28 -93 -51 -54 -109 -68 -174 -41 -71 30 -104
126 -72 210 20 51 32 63 83 82 50 17 60 17 110 -6z"/>
<path d="M8590 6525 c0 -160 7 -188 57 -221 40 -27 133 -26 170 2 47 35 53 57
53 217 0 140 -1 147 -20 147 -19 0 -20 -7 -20 -146 l0 -146 -29 -29 c-31 -31
-68 -37 -115 -19 -45 17 -56 55 -56 205 0 128 -1 135 -20 135 -19 0 -20 -7
-20 -145z"/>
<path d="M9190 6480 c0 -182 1 -190 20 -190 17 0 19 8 22 78 l3 77 31 3 c29 3
34 -2 77 -77 40 -68 51 -81 73 -81 l26 0 -19 33 c-11 17 -31 53 -46 78 l-27
46 30 13 c42 17 60 46 60 95 0 80 -52 115 -175 115 l-75 0 0 -190z m190 123
c16 -20 20 -36 16 -58 -9 -47 -39 -65 -107 -65 l-59 0 0 75 0 75 64 0 c58 0
67 -3 86 -27z"/>
<path d="M10168 6654 c-35 -18 -48 -43 -48 -89 0 -49 32 -79 108 -100 97 -28
123 -65 81 -119 -30 -39 -91 -37 -129 4 -15 17 -35 30 -44 30 -26 0 -18 -36
14 -64 86 -72 220 -25 220 76 0 52 -30 81 -106 103 -63 18 -104 48 -104 76 0
63 102 89 144 36 21 -27 66 -38 66 -16 0 6 -15 26 -34 45 -30 30 -40 34 -87
34 -30 -1 -66 -7 -81 -16z"/>
<path d="M10660 6650 c0 -17 7 -20 50 -20 l50 0 0 -170 0 -170 25 0 25 0 0
170 0 170 50 0 c43 0 50 3 50 20 0 19 -7 20 -125 20 -118 0 -125 -1 -125 -20z"/>
<path d="M11295 6656 c-37 -17 -80 -62 -94 -99 -30 -78 -2 -194 56 -235 82
-56 177 -53 248 9 97 86 78 261 -35 319 -46 23 -129 26 -175 6z m142 -36 c63
-28 85 -69 81 -152 -3 -55 -8 -72 -28 -93 -51 -54 -109 -68 -174 -41 -71 30
-104 126 -72 210 20 51 32 63 83 82 50 17 60 17 110 -6z"/>
<path d="M11870 6480 c0 -182 1 -190 20 -190 17 0 19 8 22 78 l3 77 31 3 c29
3 34 -2 77 -77 40 -68 51 -81 73 -81 l26 0 -19 33 c-11 17 -31 53 -46 78 l-27
46 30 13 c42 17 60 46 60 95 0 80 -52 115 -175 115 l-75 0 0 -190z m190 123
c16 -20 20 -36 16 -58 -9 -47 -39 -65 -107 -65 l-59 0 0 75 0 75 64 0 c58 0
67 -3 86 -27z"/>
<path d="M12430 6480 l0 -190 100 0 c82 0 100 3 100 15 0 12 -15 15 -75 15
l-75 0 0 70 0 70 70 0 c63 0 70 2 70 20 0 18 -7 20 -70 20 l-70 0 0 65 0 65
75 0 c68 0 75 2 75 20 0 19 -7 20 -100 20 l-100 0 0 -190z"/>
</g>
</svg>
